HIERARCHY
ROOT Hips
{
	OFFSET 55.310501 45.591206 43.872097
	CHANNELS 6 Xposition Yposition Zposition Zrotation Xrotation Yrotation
	JOINT Chest
	{
		OFFSET -0.153500 1.163101 7.852402
		CHANNELS 6 Xposition Yposition Zposition Zrotation Xrotation Yrotation
		JOINT Chest2
		{
			OFFSET 0.000000 0.000000 3.343300
			CHANNELS 6 Xposition Yposition Zposition Zrotation Xrotation Yrotation
			JOINT Neck
			{
				OFFSET 0.000000 0.000000 7.785500
				CHANNELS 6 Xposition Yposition Zposition Zrotation Xrotation Yrotation
				JOINT Head
				{
					OFFSET 0.000000 0.000000 2.173901
					CHANNELS 6 Xposition Yposition Zposition Zrotation Xrotation Yrotation
					End Site
					{
						OFFSET 0.000000 0.000000 10.528198
					}
				}
			}
			JOINT LeftCollar
			{
				OFFSET 2.676300 -1.652401 4.938301
				CHANNELS 6 Xposition Yposition Zposition Zrotation Xrotation Yrotation
				JOINT LeftShoulder
				{
					OFFSET 4.299000 0.000000 0.000000
					CHANNELS 6 Xposition Yposition Zposition Zrotation Xrotation Yrotation
					JOINT LeftElbow
					{
						OFFSET 0.000000 0.000000 -10.245102
						CHANNELS 6 Xposition Yposition Zposition Zrotation Xrotation Yrotation
						JOINT LeftWrist
						{
							OFFSET 0.000000 0.000000 -12.703300
							CHANNELS 6 Xposition Yposition Zposition Zrotation Xrotation Yrotation
							End Site
							{
								OFFSET 0.000000 0.000000 -2.173901
							}
						}
					}
				}
			}
			JOINT RightCollar
			{
				OFFSET -2.534599 -1.686401 5.195000
				CHANNELS 6 Xposition Yposition Zposition Zrotation Xrotation Yrotation
				JOINT RightShoulder
				{
					OFFSET -4.144100 0.000000 0.000000
					CHANNELS 6 Xposition Yposition Zposition Zrotation Xrotation Yrotation
					JOINT RightElbow
					{
						OFFSET 0.000000 0.000000 -10.116501
						CHANNELS 6 Xposition Yposition Zposition Zrotation Xrotation Yrotation
						JOINT RightWrist
						{
							OFFSET 0.000000 0.000000 -12.937801
							CHANNELS 6 Xposition Yposition Zposition Zrotation Xrotation Yrotation
							End Site
							{
								OFFSET 0.000000 0.000000 -2.173901
							}
						}
					}
				}
			}
		}
	}
	JOINT LeftHip
	{
		OFFSET 2.175598 0.064499 -2.662899
		CHANNELS 6 Xposition Yposition Zposition Zrotation Xrotation Yrotation
		JOINT LeftKnee
		{
			OFFSET 0.000000 -0.000004 -18.585800
			CHANNELS 6 Xposition Yposition Zposition Zrotation Xrotation Yrotation
			JOINT LeftAnkle
			{
				OFFSET 0.000000 0.000000 -18.979500
				CHANNELS 6 Xposition Yposition Zposition Zrotation Xrotation Yrotation
				End Site
				{
					OFFSET 0.000000 -9.264000 0.000000
				}
			}
		}
	}
	JOINT RightHip
	{
		OFFSET -2.092400 -0.058102 -2.581200
		CHANNELS 6 Xposition Yposition Zposition Zrotation Xrotation Yrotation
		JOINT RightKnee
		{
			OFFSET 0.000000 -0.000004 -18.665001
			CHANNELS 6 Xposition Yposition Zposition Zrotation Xrotation Yrotation
			JOINT RightAnkle
			{
				OFFSET 0.000000 0.000000 -18.566601
				CHANNELS 6 Xposition Yposition Zposition Zrotation Xrotation Yrotation
				End Site
				{
					OFFSET 0.000000 -8.497601 0.000000
				}
			}
		}
	}
}
MOTION
Frames: 4
Frame Time: 0.041667
33.905807 62.783497 43.062290 -6.847438 0.944531 17.303572 -0.153494 1.163097 7.852407 -23.158192 7.901103 -4.396674 0.000009 0.000005 3.343303 5.355185 -2.849944 0.102827 0.000002 0.000002 7.785495 43.862502 -2.183862 -32.959245 -0.000002 0.000007 2.173912 4.752122 5.485646 4.411798 2.676295 -1.652395 4.938289 -9.412498 5.315712 -4.971199 4.298995 0.000000 -0.000001 -8.925995 6.436004 -54.627802 -0.000005 -0.000004 -10.245100 400.673759 -7.130382 363.049635 0.000007 0.000016 -12.703295 -55.917324 2.732045 16.533303 -2.534598 -1.686399 5.194992 -8.562940 -0.087936 -0.750557 -4.144106 -0.000005 -0.000009 13.032695 -17.120306 106.404662 0.000011 0.000011 -10.116491 -105.747475 -30.187479 -135.191819 -0.000002 0.000004 -12.937797 63.670941 -11.830907 28.887588 2.175600 0.064490 -2.662899 -220.315005 -39.118491 47.119085 -0.000010 0.000005 -18.585808 168.418149 -192.858833 -192.918160 -0.000007 -0.000007 -18.979504 219.717541 61.382944 57.408560 -2.092391 -0.058111 -2.581200 -5.028107 -2.457785 -13.163741 0.000003 -0.000001 -18.665005 -199.636334 161.153519 168.373725 0.000007 -0.000002 -18.566605 27.640247 21.142349 15.009037
33.901104 62.791599 43.060291 -6.876130 0.984674 17.319753 -0.153503 1.163109 7.852412 -23.118524 7.895744 -4.383687 -0.000005 0.000004 3.343301 5.337560 -2.870073 0.102924 -0.000004 -0.000006 7.785493 43.881028 -2.240920 -33.014665 -0.000002 0.000001 2.173904 4.732274 5.511339 4.438441 2.676292 -1.652410 4.938297 -9.346437 5.271312 -5.011595 4.299002 0.000000 0.000001 -9.094894 6.610099 -54.642712 -0.000002 -0.000008 -10.245112 400.843530 -7.111476 363.047914 -0.000006 0.000009 -12.703308 -55.893501 2.721832 16.492277 -2.534602 -1.686407 5.194989 -8.574080 -0.131943 -0.795152 -4.144103 0.000000 -0.000001 13.034712 -17.155690 106.493557 0.000003 0.000009 -10.116510 -105.402892 -30.010260 -134.997432 -0.000005 0.000000 -12.937795 63.841491 -11.944888 28.912792 2.175605 0.064498 -2.662889 -217.864211 -37.530732 48.635933 -0.000009 -0.000003 -18.585808 167.480214 -192.974851 -192.872603 -0.000009 0.000012 -18.979504 217.691694 61.466655 57.849728 -2.092399 -0.058103 -2.581192 -5.052713 -2.493896 -13.176115 -0.000005 -0.000004 -18.665003 -199.559426 161.170280 168.325627 0.000005 -0.000001 -18.566607 27.574561 21.173527 15.050716
33.898796 62.800404 43.057690 -6.912366 1.020635 17.313602 -0.153501 1.163110 7.852407 -23.075746 7.889260 -4.346179 0.000001 -0.000003 3.343298 5.319141 -2.886982 0.103073 0.000000 0.000008 7.785500 43.902544 -2.303011 -33.067493 -0.000010 0.000002 2.173900 4.727515 5.550793 4.424912 2.676297 -1.652387 4.938295 -9.254759 5.192381 -5.061329 4.298985 -0.000005 -0.000004 -9.279673 6.802317 -54.645413 0.000001 -0.000012 -10.245101 401.006799 -7.112372 363.048433 0.000004 0.000002 -12.703296 -55.878635 2.719688 16.478103 -2.534600 -1.686386 5.195005 -8.594523 -0.193601 -0.819018 -4.144102 -0.000002 -0.000010 13.063154 -17.219645 106.578743 0.000006 0.000009 -10.116505 -104.921685 -29.772340 -134.725140 0.000005 -0.000004 -12.937802 64.130190 -12.078965 28.923648 2.175597 0.064496 -2.662889 -215.058970 -35.537143 50.285680 -0.000006 -0.000006 -18.585804 166.350514 -193.112944 -192.832810 -0.000010 0.000006 -18.979511 216.574329 60.858010 60.005910 -2.092399 -0.058103 -2.581199 -5.076289 -2.530521 -13.162562 -0.000002 -0.000002 -18.665005 -199.465061 161.190006 168.279168 0.000007 -0.000016 -18.566601 27.513996 21.199797 15.058726
33.898800 62.809303 43.054794 -6.953193 1.052819 17.290658 -0.153496 1.163098 7.852409 -23.029275 7.885205 -4.289770 -0.000001 0.000002 3.343308 5.293392 -2.765420 0.102743 -0.000004 0.000021 7.785503 43.925158 -2.463091 -33.011544 -0.000003 0.000010 2.173895 4.747614 5.607488 4.369382 2.676291 -1.652380 4.938298 -9.134633 4.950891 -5.145167 4.298998 0.000002 -0.000007 -9.468349 6.986410 -54.633911 -0.000003 -0.000005 -10.245110 401.143130 -7.128569 363.050810 -0.000008 0.000008 -12.703293 -55.874082 2.726213 16.491178 -2.534600 -1.686384 5.195000 -8.627413 -0.413911 -0.850075 -4.144098 0.000003 -0.000002 13.104520 -17.286994 106.659353 0.000001 0.000010 -10.116491 -104.386997 -29.514525 -134.414189 0.000003 0.000000 -12.937795 64.475497 -12.220215 28.953182 2.175600 0.064496 -2.662895 -212.206505 -33.321549 51.864502 -0.000005 0.000000 -18.585804 165.154343 -193.254192 -192.793359 -0.000008 0.000009 -18.979504 214.300423 60.721242 61.231567 -2.092393 -0.058106 -2.581195 -5.093809 -2.565987 -13.127960 0.000003 -0.000004 -18.665007 -199.354876 161.212081 168.228215 0.000009 -0.000000 -18.566603 27.453184 21.220501 15.023448
